<svg xmlns="http://www.w3.org/2000/svg" xmlns:xlink="http://www.w3.org/1999/xlink" width="500" zoomAndPan="magnify" viewBox="0 0 375 374.999991" height="500" preserveAspectRatio="xMidYMid meet" version="1.0"><defs><clipPath id="4bfb1751a5"><path d="M 64 2.613281 L 311 2.613281 L 311 375 L 64 375 Z M 64 2.613281 " clip-rule="nonzero"/></clipPath><clipPath id="e6cf5a2d98"><path d="M 74 12 L 301.105469 12 L 301.105469 233 L 74 233 Z M 74 12 " clip-rule="nonzero"/></clipPath></defs><g clip-path="url(#4bfb1751a5)"><path fill="#ff3131" d="M 310.75 125.550781 C 310.75 57.894531 255.8125 2.613281 187.65625 2.613281 C 119.5 2.613281 64.5625 57.894531 64.5625 125.550781 C 64.5625 146.179688 69.929688 165.980469 79.019531 183.308594 L 153.371094 323.160156 L 175.265625 364.414062 C 182.285156 377.613281 193.851562 377.613281 200.875 364.414062 L 214.917969 337.597656 L 296.707031 183.308594 C 305.792969 165.980469 310.75 146.589844 310.75 125.550781 Z M 310.75 125.550781 " fill-opacity="1" fill-rule="nonzero"/></g><g clip-path="url(#e6cf5a2d98)"><path fill="#ffffff" d="M 181.410156 12.625 C 123.070312 15.777344 76.324219 63.582031 74.40625 121.949219 C 73.835938 139.386719 77.21875 155.984375 83.707031 170.90625 C 87.445312 179.464844 98.75 181.382812 105.257812 174.667969 C 109.460938 170.324219 113.226562 166.644531 116.789062 167.808594 C 126.777344 171.074219 121.890625 207.835938 128.566406 209.011719 C 133.75 209.921875 138.992188 188.140625 148 188.410156 C 155.640625 188.640625 158.550781 204.582031 166.25 204.300781 C 172.488281 204.070312 173.894531 193.464844 179.207031 193.125 C 189.660156 192.445312 196.636719 232.980469 205.101562 232.554688 C 214.546875 232.070312 217.472656 181 226.890625 180.757812 C 232.757812 180.617188 235.742188 200.335938 242.785156 200.179688 C 250.839844 200.011719 253.695312 174.128906 263.398438 173.703125 C 268.496094 173.476562 269.546875 180.53125 275.175781 181.355469 C 279.292969 181.949219 283.085938 178.785156 286.734375 174.171875 C 293.683594 165.382812 297.875 154.761719 299.648438 143.6875 C 300.570312 137.851562 301.054688 131.847656 301.054688 125.742188 C 301.054688 61.082031 246.863281 9.089844 181.410156 12.625 Z M 229.691406 41.519531 C 231.636719 41.519531 233.214844 43.09375 233.214844 45.054688 C 233.214844 47 231.636719 48.574219 229.691406 48.574219 C 227.746094 48.574219 226.167969 47 226.167969 45.054688 C 226.167969 43.09375 227.746094 41.519531 229.691406 41.519531 Z M 202.941406 62.402344 C 204.378906 62.402344 205.542969 63.566406 205.542969 65 C 205.542969 66.4375 204.378906 67.585938 202.941406 67.585938 C 201.507812 67.585938 200.34375 66.4375 200.34375 65 C 200.34375 63.566406 201.507812 62.402344 202.941406 62.402344 Z M 183.609375 52.308594 C 187.121094 52.308594 189.960938 55.148438 189.960938 58.65625 C 189.960938 62.164062 187.121094 65.003906 183.609375 65.003906 C 180.101562 65.003906 177.261719 62.164062 177.261719 58.65625 C 177.261719 55.148438 180.101562 52.308594 183.609375 52.308594 Z M 136.167969 49.796875 C 111.480469 66.746094 96.179688 94.660156 95.242188 124.433594 C 95.15625 127.132812 92.957031 129.25 90.285156 129.25 L 90.128906 129.25 C 87.375 129.164062 85.230469 126.863281 85.3125 124.121094 C 86.335938 91.199219 103.253906 60.34375 130.542969 41.601562 C 132.800781 40.042969 135.898438 40.625 137.460938 42.882812 C 139.007812 45.140625 138.4375 48.234375 136.167969 49.796875 Z M 187.703125 174.894531 C 160.542969 174.894531 138.523438 152.886719 138.523438 125.742188 C 138.523438 98.609375 160.542969 76.601562 187.703125 76.601562 C 214.859375 76.601562 236.878906 98.609375 236.878906 125.742188 C 236.878906 152.886719 214.859375 174.894531 187.703125 174.894531 Z M 230.527344 76.601562 C 227.019531 76.601562 224.179688 73.761719 224.179688 70.253906 C 224.179688 66.746094 227.019531 63.910156 230.527344 63.910156 C 234.023438 63.910156 236.878906 66.746094 236.878906 70.253906 C 236.878906 73.761719 234.023438 76.601562 230.527344 76.601562 Z M 243.457031 99.433594 C 243.457031 97.941406 244.664062 96.734375 246.152344 96.734375 C 247.632812 96.734375 248.839844 97.941406 248.839844 99.433594 C 248.839844 100.910156 247.632812 102.117188 246.152344 102.117188 C 244.664062 102.117188 243.457031 100.910156 243.457031 99.433594 Z M 248.839844 143.261719 C 247.007812 143.261719 245.515625 141.769531 245.515625 139.9375 C 245.515625 138.109375 247.007812 136.617188 248.839844 136.617188 C 250.683594 136.617188 252.164062 138.109375 252.164062 139.9375 C 252.164062 141.769531 250.6875 143.261719 248.839844 143.261719 Z M 253.769531 71.335938 C 251.695312 71.335938 250.019531 69.660156 250.019531 67.585938 C 250.019531 65.527344 251.695312 63.835938 253.769531 63.835938 C 255.84375 63.835938 257.519531 65.527344 257.519531 67.585938 C 257.519531 69.660156 255.84375 71.335938 253.769531 71.335938 Z M 261.539062 128.183594 C 259.363281 128.183594 257.601562 126.421875 257.601562 124.25 C 257.601562 122.078125 259.363281 120.316406 261.539062 120.316406 C 263.710938 120.316406 265.472656 122.078125 265.472656 124.25 C 265.472656 126.421875 263.710938 128.183594 261.539062 128.183594 Z M 265.472656 84.808594 C 265.472656 82.765625 267.121094 81.117188 269.152344 81.117188 C 271.199219 81.117188 272.84375 82.765625 272.84375 84.808594 C 272.84375 86.839844 271.199219 88.484375 269.152344 88.484375 C 267.121094 88.484375 265.472656 86.839844 265.472656 84.808594 Z M 275.246094 120.472656 C 271.183594 120.472656 267.886719 117.179688 267.886719 113.121094 C 267.886719 109.058594 271.183594 105.765625 275.246094 105.765625 C 279.308594 105.765625 282.589844 109.058594 282.589844 113.121094 C 282.589844 117.179688 279.308594 120.472656 275.246094 120.472656 Z M 275.246094 120.472656 " fill-opacity="1" fill-rule="nonzero"/></g></svg>